<?xml version="1.0" encoding="UTF-8"?>
<svg version="1.1" xmlns="http://www.w3.org/2000/svg" width="650" height="650">
<path d="M0 0 C214.5 0 429 0 650 0 C650 214.5 650 429 650 650 C435.5 650 221 650 0 650 C0 435.5 0 221 0 0 Z " fill="#070709" transform="translate(0,0)"/>
<path d="M0 0 C6.89785953 3.33017322 11.8005127 7.35996233 17 12.9375 C22.23630327 18.52323785 27.44745463 23.00419868 34 27 C33.278125 26.278125 32.55625 25.55625 31.8125 24.8125 C30.01038656 23.01038656 28.21777202 21.19869329 26.4375 19.375 C24.11645367 17.00138243 24.11645367 17.00138243 21.6875 15.3125 C21.130625 14.879375 20.57375 14.44625 20 14 C20 13.34 20 12.68 20 12 C19.01 11.67 18.02 11.34 17 11 C18 9 18 9 20 8 C20.25136719 8.61488281 20.50273437 9.22976562 20.76171875 9.86328125 C22.8286893 13.42994651 26.28173376 14.5141154 30 16 C32.81448914 16.76754832 32.81448914 16.76754832 35 17 C34.979375 17.763125 34.95875 18.52625 34.9375 19.3125 C34.87057159 22.10185786 34.87057159 22.10185786 36 25 C36.66 25 37.32 25 38 25 C38 25.66 38 26.32 38 27 C38.99 27.33 39.98 27.66 41 28 C41 28.66 41 29.32 41 30 C39.35 29.67 37.7 29.34 36 29 C38.8218089 32.8376601 41.91009552 35.72253404 45.609375 38.66796875 C46.06828125 39.10753906 46.5271875 39.54710937 47 40 C47 40.66 47 41.32 47 42 C47.99 42 48.98 42 50 42 C51.14351312 43.07420929 52.27525491 44.16314914 53.3515625 45.3046875 C57.91363819 49.99649046 62.77016795 54.54203289 68.25 58.125 C71.34324382 60.23402988 73.32306739 62.57540626 75.60546875 65.51171875 C77.03788926 67.27710142 77.03788926 67.27710142 80 68 C80 68.66 80 69.32 80 70 C74.34979382 69.39891424 69.33835539 67.92471317 64 66 C64 65.34 64 64.68 64 64 C63.278125 63.7525 62.55625 63.505 61.8125 63.25 C58.73105265 61.88046785 56.5939755 60.14002978 54 58 C52.83210938 57.32130859 52.83210938 57.32130859 51.640625 56.62890625 C45.25015235 52.68685433 39.93739926 47.00595894 34.75 41.625 C26.70694622 33.51064255 17.83673522 25.92364551 7 22 C7 21.34 7 20.68 7 20 C5.02 20 3.04 20 1 20 C1 20.66 1 21.32 1 22 C1.66 22 2.32 22 3 22 C3 22.66 3 23.32 3 24 C0.62051228 23.82374165 -0.70225849 23.30280227 -2.37890625 21.59765625 C-3.62115486 20.09350908 -4.81376056 18.54870149 -6 17 C-4.35 17 -2.7 17 -1 17 C-1.165 15.96875 -1.33 14.9375 -1.5 13.875 C-2.19362683 8.49939207 -2.60320469 4.80512486 0 0 Z " fill="#1F1E22" transform="translate(234,152)"/>
<path d="M0 0 C0.680625 0.185625 1.36125 0.37125 2.0625 0.5625 C5.5642157 1.08403213 8.51574511 0.52592527 12 0 C12.66 0.33 13.32 0.66 14 1 C14 3.33333333 14 5.66666667 14 8 C19.8516669 14.81034424 26.55334735 20.07475781 34 25 C36.2890625 26.56640625 36.2890625 26.56640625 38 28 C38 28.66 38 29.32 38 30 C38.804375 30.2475 39.60875 30.495 40.4375 30.75 C41.283125 31.1625 42.12875 31.575 43 32 C43.35412344 33.32796291 43.68521554 34.66216607 44 36 C45.66215268 37.33895632 47.32963607 38.67130142 49 40 C49.86529833 41.1644138 50.69762835 42.35386423 51.5 43.5625 C53.59805277 46.67960697 55.67299448 48.19391129 59 50 C59 50.66 59 51.32 59 52 C59.8353125 52.3403125 59.8353125 52.3403125 60.6875 52.6875 C63 54 63 54 65.5 56.5625 C67.69404138 59.12070936 67.69404138 59.12070936 70.125 59.5 C72 60 72 60 73.5 62.3125 C73.995 63.199375 74.49 64.08625 75 65 C75.721875 65.721875 76.44375 66.44375 77.1875 67.1875 C77.785625 67.785625 78.38375 68.38375 79 69 C79 69.66 79 70.32 79 71 C77.25390625 71.6640625 77.25390625 71.6640625 75 72 C72.96484375 70.9609375 72.96484375 70.9609375 70.9375 69.375 C69.93009766 68.61316406 69.93009766 68.61316406 68.90234375 67.8359375 C67 66 67 66 65.5703125 63.48046875 C63.70022636 60.52647696 62.0040187 59.55882579 58.9375 57.9375 C54.21723687 55.43527534 54.21723687 55.43527534 52.94140625 52.87890625 C52.63074219 52.25886719 52.32007813 51.63882813 52 51 C50.14921284 50.42223828 50.14921284 50.42223828 48 50 C46.20993558 48.91782469 44.46104205 47.76573279 42.75 46.5625 C41.85796875 45.94503906 40.9659375 45.32757813 40.046875 44.69140625 C39.37140625 44.13324219 38.6959375 43.57507813 38 43 C38 42.34 38 41.68 38 41 C37.3503125 40.80277344 36.700625 40.60554688 36.03125 40.40234375 C31.70401861 38.4004416 28.22781974 35.50805705 24.5 32.5625 C18.91638183 28.12700939 18.91638183 28.12700939 12.96875 24.21484375 C12.3190625 23.81394531 11.669375 23.41304687 11 23 C11 22.34 11 21.68 11 21 C9.824375 20.5359375 9.824375 20.5359375 8.625 20.0625 C6 19 6 19 4 18 C6.97 20.64 9.94 23.28 13 26 C11.02 26.99 11.02 26.99 9 28 C9 28.66 9 29.32 9 30 C7.68 29.67 6.36 29.34 5 29 C5 26.69 5 24.38 5 22 C2.1575146 20.42726432 2.1575146 20.42726432 -1 20 C-1 19.01 -1 18.02 -1 17 C-2.43750191 15.31201173 -2.43750191 15.31201173 -4 14 C-2.9706719 10.91201569 -1.93976895 7.82599919 -0.875 4.75 C0.10106789 2.16333292 0.10106789 2.16333292 0 0 Z " fill="#1E1E22" transform="translate(370,120)"/>
<path d="M0 0 C1.46573934 0.90477737 2.92235756 1.82434141 4.375 2.75 C5.59316406 3.51570312 5.59316406 3.51570312 6.8359375 4.296875 C9.11813266 6.09297083 9.79540486 7.42335478 11 10 C12.65816784 10.68753301 14.32459336 11.35561283 16 12 C16.33 12.99 16.66 13.98 17 15 C17.5775 15.144375 18.155 15.28875 18.75 15.4375 C24.02420494 16.75605123 27.29326512 21.35760926 30.5703125 25.4140625 C32.10625904 27.24893404 32.10625904 27.24893404 35 29 C35 29.66 35 30.32 35 31 C35.70125 31.185625 36.4025 31.37125 37.125 31.5625 C40.59482995 33.29741498 42.29725491 35.43266389 44.66796875 38.44140625 C45.93649295 40.13049223 45.93649295 40.13049223 48 41 C48 41.66 48 42.32 48 43 C48.886875 43.20625 49.77375 43.4125 50.6875 43.625 C54.10835841 45.04497896 55.32749285 46.36875687 57.5 49.27734375 C60.00842812 52.15811667 63.1255632 54.25244708 66.20703125 56.484375 C66.79871094 56.98453125 67.39039063 57.4846875 68 58 C68 58.66 68 59.32 68 60 C62.375 63 62.375 63 59 63 C59 63.66 59 64.32 59 65 C57 65 57 65 55.375 63.625 C54 62 54 62 54 60 C53.195625 59.731875 52.39125 59.46375 51.5625 59.1875 C50.716875 58.795625 49.87125 58.40375 49 58 C48.67 57.01 48.34 56.02 48 55 C46.08333333 53.83333333 46.08333333 53.83333333 44 53 C43.01 52.505 43.01 52.505 42 52 C42 51.34 42 50.68 42 50 C41.44183594 49.75507813 40.88367188 49.51015625 40.30859375 49.2578125 C37.56014689 47.76035076 35.43213443 45.92036866 33.0625 43.875 C27.82525465 39.49411503 22.36630656 36.03413475 16.45703125 32.62890625 C15.64621094 32.09136719 14.83539063 31.55382812 14 31 C14 30.34 14 29.68 14 29 C13.44828125 28.773125 12.8965625 28.54625 12.328125 28.3125 C9.31307583 26.61274074 7.18769631 24.45195184 4.75 22 C3.85796875 21.113125 2.9659375 20.22625 2.046875 19.3125 C0 17 0 17 0 15 C-0.61875 14.7525 -1.2375 14.505 -1.875 14.25 C-4.37480203 12.77952822 -4.83316022 11.58596924 -6 9 C-4.22891052 10.12459671 -2.45813764 11.24969203 -0.6875 12.375 C0.79169922 13.31472656 0.79169922 13.31472656 2.30078125 14.2734375 C4.21287929 15.49651613 6.1114034 16.7409356 8 18 C8 18.66 8 19.32 8 20 C8.66 20 9.32 20 10 20 C10 20.66 10 21.32 10 22 C10.72574219 22.268125 11.45148438 22.53625 12.19921875 22.8125 C14.96864024 23.98670381 17.30919434 25.3394324 19.8125 27 C20.60269531 27.515625 21.39289063 28.03125 22.20703125 28.5625 C22.79871094 29.036875 23.39039063 29.51125 24 30 C24 30.66 24 31.32 24 32 C24.57363281 32.268125 25.14726562 32.53625 25.73828125 32.8125 C28.07025435 34.03688657 30.08218894 35.42002922 32.1875 37 C32.88230469 37.515625 33.57710937 38.03125 34.29296875 38.5625 C36 40 36 40 37 42 C37.9075 42.433125 38.815 42.86625 39.75 43.3125 C43.23356691 45.12127513 45.43042523 47.05254659 48 50 C48 50.66 48 51.32 48 52 C48.66 52 49.32 52 50 52 C50.33 51.01 50.66 50.02 51 49 C50.0615625 48.44570312 49.123125 47.89140625 48.15625 47.3203125 C46.93727016 46.5889246 45.71853255 45.85713286 44.5 45.125 C43.87996094 44.76019531 43.25992188 44.39539063 42.62109375 44.01953125 C41.04632542 43.0677482 39.51870947 42.03889741 38 41 C38 40.34 38 39.68 38 39 C37.34 39 36.68 39 36 39 C36 38.34 36 37.68 36 37 C35.443125 36.7525 34.88625 36.505 34.3125 36.25 C31.6006765 34.78414946 29.3847366 32.94544301 27 31 C26.34 30.67 25.68 30.34 25 30 C25 29.34 25 28.68 25 28 C23.97326172 27.6596875 23.97326172 27.6596875 22.92578125 27.3125 C19.25481814 25.66571281 16.34607773 23.46488786 13.1875 21 C12.59001953 20.54882812 11.99253906 20.09765625 11.37695312 19.6328125 C9.87652419 18.47362397 8.43275496 17.24186081 7 16 C7 15.34 7 14.68 7 14 C6.443125 13.9175 5.88625 13.835 5.3125 13.75 C1.08950343 12.38037949 -1.98734933 9.17121123 -5 6 C-4.67 5.34 -4.34 4.68 -4 4 C-3.34 4.33 -2.68 4.66 -2 5 C-1.855625 4.360625 -1.71125 3.72125 -1.5625 3.0625 C-1 1 -1 1 0 0 Z " fill="#1A1A1D" transform="translate(173,185)"/>
<path d="M0 0 C2.22694714 1.07223381 4.25980644 2.17554489 6.3125 3.5625 C9.04130284 5.23205523 9.04130284 5.23205523 12.6875 5.4375 C13.780625 5.623125 14.87375 5.80875 16 6 C17.125 7.9375 17.125 7.9375 18 10 C19.6635479 10.67441131 21.33066942 11.3400321 23 12 C24.70993434 13.6222454 26.37347684 15.29413425 28 17 C29.09443009 17.90770268 30.19864732 18.80373895 31.3125 19.6875 C32.199375 20.450625 33.08625 21.21375 34 22 C34 22.66 34 23.32 34 24 C34.598125 24.185625 35.19625 24.37125 35.8125 24.5625 C38 26 38 26 39.375 29.375 C41.35976085 33.80254343 42.87234141 34.70685634 47 37 C46.01 35.68 45.02 34.36 44 33 C47.91841827 34.30613942 50.32640809 35.83129848 53 39 C53 39.66 53 40.32 53 41 C53.99 41.33 54.98 41.66 56 42 C56 42.66 56 43.32 56 44 C56.57234375 44.268125 57.1446875 44.53625 57.734375 44.8125 C60.07884634 46.04132636 62.12404938 47.42522176 64.25 49 C64.95640625 49.515625 65.6628125 50.03125 66.390625 50.5625 C66.92171875 51.036875 67.4528125 51.51125 68 52 C68 52.66 68 53.32 68 54 C68.66 54.33 69.32 54.66 70 55 C70 56.32 70 57.64 70 59 C72.31 59.66 74.62 60.32 77 61 C75.35 60.01 73.7 59.02 72 58 C72.495 57.01 72.495 57.01 73 56 C75.31 57.32 77.62 58.64 80 60 C80 60.66 80 61.32 80 62 C80.66 62 81.32 62 82 62 C82 62.66 82 63.32 82 64 C82.515625 64.226875 83.03125 64.45375 83.5625 64.6875 C86.89547005 66.48217618 90.14703671 68.49965015 93 71 C93 71.66 93 72.32 93 73 C93.66 73 94.32 73 95 73 C96.625 74.375 96.625 74.375 98 76 C98 76.66 98 77.32 98 78 C98.78375 78.28875 99.5675 78.5775 100.375 78.875 C103 80 103 80 105 82 C105 82.99 105 83.98 105 85 C103.02 84.505 103.02 84.505 101 84 C101 84.66 101 85.32 101 86 C102.485 86.495 102.485 86.495 104 87 C104.6875 89.0625 104.6875 89.0625 105 91 C104.01 91.495 104.01 91.495 103 92 C102.34 91.67 101.68 91.34 101 91 C101 90.34 101 89.68 101 89 C100.38125 88.690625 99.7625 88.38125 99.125 88.0625 C97.75 87.375 96.375 86.6875 95 86 C95 85.34 95 84.68 95 84 C93.515 83.505 93.515 83.505 92 83 C92 82.34 92 81.68 92 81 C90.02 80.505 90.02 80.505 88 80 C88 79.34 88 78.68 88 78 C87.34 78 86.68 78 86 78 C86 77.34 86 76.68 86 76 C85.34 76 84.68 76 84 76 C84 75.34 84 74.68 84 74 C83.278125 73.773125 82.55625 73.54625 81.8125 73.3125 C78.46347777 71.74962296 76.52752454 69.66414749 74 67 C73.34 66.67 72.68 66.34 72 66 C72 65.34 72 64.68 72 64 C71.34 64 70.68 64 70 64 C70 63.34 70 62.68 70 62 C69.34 62 68.68 62 68 62 C68 61.34 68 60.68 68 60 C67.44828125 59.7525 66.8965625 59.505 66.328125 59.25 C63.54863293 57.75765526 61.2185293 55.96327477 58.75 54 C57.85796875 53.29875 56.9659375 52.5975 56.046875 51.875 C55.37140625 51.25625 54.6959375 50.6375 54 50 C54 49.34 54 48.68 54 48 C53.21496094 47.67128906 53.21496094 47.67128906 52.4140625 47.3359375 C49.06250163 45.48119022 46.28893445 43.09664083 43.375 40.625 C42.49714844 39.90183594 42.49714844 39.90183594 41.6015625 39.1640625 C38.63232286 36.65791528 36.52359513 34.58206939 35 31 C32.9664052 29.73195434 32.9664052 29.73195434 31 29 C31 28.34 31 27.68 31 27 C30.34 27 29.68 27 29 27 C29 26.34 29 25.68 29 25 C27.9790625 24.690625 27.9790625 24.690625 26.9375 24.375 C23.08360625 22.57104973 19.92212236 20.0989655 17 17 C17 16.34 17 15.68 17 15 C14.525 14.01 14.525 14.01 12 13 C12 12.34 12 11.68 12 11 C11.42765625 10.7421875 10.8553125 10.484375 10.265625 10.21875 C7.78871005 8.88634058 5.8658834 7.34943882 3.75 5.5 C3.04359375 4.8915625 2.3371875 4.283125 1.609375 3.65625 C0 2 0 2 0 0 Z " fill="#151517" transform="translate(296,154)"/>
<path d="M0 0 C0.57492187 0.29648438 1.14984375 0.59296875 1.7421875 0.8984375 C3.93345353 2.00451137 3.93345353 2.00451137 6.0078125 2.7890625 C12.51594391 5.35869372 17.96007731 9.13894722 23 14 C23 14.66 23 15.32 23 16 C23.66 16 24.32 16 25 16 C25 16.66 25 17.32 25 18 C25.5775 18.268125 26.155 18.53625 26.75 18.8125 C29.05550043 20.02929189 31.02056192 21.30333879 33 23 C33 23.66 33 24.32 33 25 C33.53625 25.226875 34.0725 25.45375 34.625 25.6875 C39.14467478 28.18521501 42.61270216 31.4301018 45.875 35.375 C48.57516499 38.61938429 51.52185618 41.31656678 54.7265625 44.0546875 C61.41451768 49.7773708 67.89851775 55.5592904 73.5625 62.3125 C75.10319512 64.17394794 75.10319512 64.17394794 77.4375 66.375 C79 68 79 68 79 70 C78.34 70 77.68 70 77 70 C77 69.34 77 68.68 77 68 C76.4225 67.71125 75.845 67.4225 75.25 67.125 C73.16666667 66.08333333 71.08333333 65.04166667 69 64 C69 63.34 69 62.68 69 62 C68.1028125 61.8453125 68.1028125 61.8453125 67.1875 61.6875 C64.71756736 60.91123545 63.67748765 59.92911079 62 58 C62 58.66 62 59.32 62 60 C59.16005902 58.67847038 56.82187818 57.19476392 54.3984375 55.21484375 C53.74359375 54.68439453 53.08875 54.15394531 52.4140625 53.60742188 C51.74117188 53.05634766 51.06828125 52.50527344 50.375 51.9375 C49.02996014 50.84083397 47.68366378 49.74570667 46.3359375 48.65234375 C45.74345215 48.16757568 45.1509668 47.68280762 44.54052734 47.18334961 C42.99403139 45.91776563 42.99403139 45.91776563 41 45 C41 43.68 41 42.36 41 41 C40.2575 41.0825 39.515 41.165 38.75 41.25 C35.17330494 40.9248459 34.32644915 39.63664238 32 37 C31.01 36.34 30.02 35.68 29 35 C29 34.34 29 33.68 29 33 C28.41089844 32.73832031 27.82179688 32.47664063 27.21484375 32.20703125 C24.88214566 30.9357725 23.39645632 29.59769469 21.5625 27.6875 C20.964375 27.07132813 20.36625 26.45515625 19.75 25.8203125 C19.1725 25.21960938 18.595 24.61890625 18 24 C17.02327818 23.01839457 16.04445233 22.03887306 15.0625 21.0625 C14.0415625 20.0415625 14.0415625 20.0415625 13 19 C13.61875 19.185625 14.2375 19.37125 14.875 19.5625 C17.04160178 20.23686176 17.04160178 20.23686176 19 19 C19.33 18.01 19.66 17.02 20 16 C19.42765625 15.88527344 18.8553125 15.77054688 18.265625 15.65234375 C15.78528344 14.93817644 13.93631303 13.92692128 11.75 12.5625 C11.04359375 12.13066406 10.3371875 11.69882813 9.609375 11.25390625 C9.07828125 10.84011719 8.5471875 10.42632812 8 10 C8 9.34 8 8.68 8 8 C7.4225 7.731875 6.845 7.46375 6.25 7.1875 C3.92636635 5.9611378 1.96175354 4.75156566 0 3 C0 2.01 0 1.02 0 0 Z " fill="#1C1C20" transform="translate(420,189)"/>
<path d="M0 0 C3.33258945 1.47359397 5.74389184 3.37097996 8.4375 5.8125 C9.22253906 6.52277344 10.00757813 7.23304688 10.81640625 7.96484375 C12.54024634 9.57149972 14.22438267 11.19428023 15.875 12.875 C18.00817151 15.1470871 18.00817151 15.1470871 21 17 C21 17.66 21 18.32 21 19 C21.66 19 22.32 19 23 19 C23 19.66 23 20.32 23 21 C23.66 21 24.32 21 25 21 C25 21.66 25 22.32 25 23 C25.99 23 26.98 23 28 23 C27.34 21.68 26.68 20.36 26 19 C28.16874252 19.50603992 29.99967627 19.99983813 32 21 C32 20.01 32 19.02 32 18 C32.5775 18.33 33.155 18.66 33.75 19 C36.19883862 20.27075898 36.19883862 20.27075898 40 20 C39.505 22.475 39.505 22.475 39 25 C40.32 25.66 41.64 26.32 43 27 C43 27.66 43 28.32 43 29 C43.66 29 44.32 29 45 29 C45 29.66 45 30.32 45 31 C45.57492188 31.26167969 46.14984375 31.52335937 46.7421875 31.79296875 C51.57793059 34.37816704 55.99861768 38.03895961 58.5 42.9375 C58.7475 43.9584375 58.7475 43.9584375 59 45 C58.34 45 57.68 45 57 45 C57.95117134 46.1725131 58.91117009 47.33787015 59.875 48.5 C60.40867188 49.1496875 60.94234375 49.799375 61.4921875 50.46875 C61.98976563 50.9740625 62.48734375 51.479375 63 52 C63.66 52 64.32 52 65 52 C65 52.66 65 53.32 65 54 C65.66 54.33 66.32 54.66 67 55 C60.47816719 55 56.67215538 50.23673261 52 46 C47 40.90384615 47 40.90384615 47 38 C46.01 38 45.02 38 44 38 C44 37.34 44 36.68 44 36 C43.4225 35.9175 42.845 35.835 42.25 35.75 C39.3840696 34.79468987 38.0009236 33.21530827 36 31 C35.01 31.495 35.01 31.495 34 32 C33.34 31.67 32.68 31.34 32 31 C32 30.34 32 29.68 32 29 C31.30132812 28.80148438 30.60265625 28.60296875 29.8828125 28.3984375 C26.00663221 26.5181224 23.74628143 23.77601628 20.875 20.625 C16.0848553 15.57280339 12.21901683 12.65458801 5.390625 10.7578125 C1.73185298 9.59800568 -0.34304497 7.72876463 -3 5 C-3 4.34 -3 3.68 -3 3 C-2.01 3 -1.02 3 0 3 C0 2.01 0 1.02 0 0 Z " fill="#18171B" transform="translate(176,168)"/>
<path d="M0 0 C5.15464734 0.48324819 8.81550319 3.18610761 13 6 C12.67 7.32 12.34 8.64 12 10 C12.99 10 13.98 10 15 10 C15.99 11.485 15.99 11.485 17 13 C17.99 13.33 18.98 13.66 20 14 C20 14.66 20 15.32 20 16 C20.99 16 21.98 16 23 16 C23.66 17.65 24.32 19.3 25 21 C24.01 20.67 23.02 20.34 22 20 C22.33 20.66 22.66 21.32 23 22 C24.7015625 22.2165625 24.7015625 22.2165625 26.4375 22.4375 C27.613125 22.623125 28.78875 22.80875 30 23 C30.66 23.99 31.32 24.98 32 26 C31.01 26 30.02 26 29 26 C30.98 27.32 32.96 28.64 35 30 C34.67 30.66 34.34 31.32 34 32 C31.69 31.67 29.38 31.34 27 31 C27 31.66 27 32.32 27 33 C25 33 25 33 22.625 30.75 C21.75875 29.8425 20.8925 28.935 20 28 C19.236875 27.278125 18.47375 26.55625 17.6875 25.8125 C16 24 16 24 16 22 C15.29875 21.814375 14.5975 21.62875 13.875 21.4375 C10.97241584 19.98620792 10.06934157 19.03996748 8.125 16.5625 C6.0085584 13.90872349 4.43582387 12.50222676 1.25 11.3125 C-2 10 -2 10 -3.4375 7.8125 C-3.623125 7.214375 -3.80875 6.61625 -4 6 C-3.01 6 -2.02 6 -1 6 C-0.67 4.02 -0.34 2.04 0 0 Z " fill="#1E1D22" transform="translate(384,155)"/>
<path d="M0 0 C5.98445517 3.69502837 11.71891343 7.34761421 17 12 C20.46007518 14.95674266 20.46007518 14.95674266 24.5 16.9375 C27.75639761 18.32146898 29.54259753 20.48116247 32 23 C33.65948148 24.01187895 35.32580562 25.0126546 37 26 C38.33333333 27.33333333 39.66666667 28.66666667 41 30 C42.0725 30.70125 43.145 31.4025 44.25 32.125 C45.1575 32.74375 46.065 33.3625 47 34 C47 34.66 47 35.32 47 36 C48.98 36.66 50.96 37.32 53 38 C53 38.66 53 39.32 53 40 C54.65 40.66 56.3 41.32 58 42 C58 42.66 58 43.32 58 44 C58.99 44 59.98 44 61 44 C61 44.99 61 45.98 61 47 C62.32 47.33 63.64 47.66 65 48 C65.495 49.98 65.495 49.98 66 52 C58.25531915 51.25531915 58.25531915 51.25531915 55 48 C55 47.34 55 46.68 55 46 C54.34 46 53.68 46 53 46 C53 45.34 53 44.68 53 44 C51.68 43.67 50.36 43.34 49 43 C49 42.34 49 41.68 49 41 C48.443125 40.938125 47.88625 40.87625 47.3125 40.8125 C44.05522474 39.66805194 42.3500902 37.47377916 40 35 C39.01 34.505 39.01 34.505 38 34 C38 33.34 38 32.68 38 32 C37.46375 31.7525 36.9275 31.505 36.375 31.25 C33.4176018 29.69347463 30.70275949 27.96564327 28 26 C28 25.34 28 24.68 28 24 C27.01 23.67 26.02 23.34 25 23 C25 22.34 25 21.68 25 21 C24.278125 20.7525 23.55625 20.505 22.8125 20.25 C19.72393418 18.87730408 17.48988582 17.27646704 15 15 C15 14.34 15 13.68 15 13 C14.195625 12.62875 14.195625 12.62875 13.375 12.25 C10.4176018 10.69347463 7.70275949 8.96564327 5 7 C5 6.34 5 5.68 5 5 C3.02 4.34 1.04 3.68 -1 3 C-0.67 2.01 -0.34 1.02 0 0 Z " fill="#101011" transform="translate(343,244)"/>
<path d="M0 0 C0.66 0 1.32 0 2 0 C2 0.99 2 1.98 2 3 C2.70125 2.67 3.4025 2.34 4.125 2 C7.42897847 0.8507901 9.52903112 0.49381704 13 1 C15.69161349 3.15329079 17.52068953 4.87019674 18.875 8.0625 C19.01598818 10.24781682 18.66763629 11.92290932 18 14 C17.01 14 16.02 14 15 14 C15.66 14.45375 16.32 14.9075 17 15.375 C17.99 16.179375 17.99 16.179375 19 17 C19 17.66 19 18.32 19 19 C19.99 19.33 20.98 19.66 22 20 C24.6875 22.4375 24.6875 22.4375 27 25 C27 25.66 27 26.32 27 27 C27.66 27 28.32 27 29 27 C29.33 26.01 29.66 25.02 30 24 C31.32 24 32.64 24 34 24 C34.2226746 25.43534841 34.42761906 26.87345525 34.625 28.3125 C34.74101562 29.11300781 34.85703125 29.91351563 34.9765625 30.73828125 C35 33 35 33 33 36 C31.82780457 35.21654285 30.66236332 34.42297164 29.5 33.625 C28.8503125 33.18414062 28.200625 32.74328125 27.53125 32.2890625 C27.0259375 31.86367187 26.520625 31.43828125 26 31 C26 30.34 26 29.68 26 29 C25.34 29 24.68 29 24 29 C24 28.34 24 27.68 24 27 C23.45730469 26.78085938 22.91460937 26.56171875 22.35546875 26.3359375 C19.21590627 24.55529013 16.83543363 22.1646418 14.3125 19.625 C13.81427734 19.14289063 13.31605469 18.66078125 12.80273438 18.1640625 C10.24195736 15.60676008 8.37594807 13.68953684 8 10 C7.34 10 6.68 10 6 10 C6 9.34 6 8.68 6 8 C5.38125 7.9175 4.7625 7.835 4.125 7.75 C2 7 2 7 0.75 5.125 C0 3 0 3 0 0 Z " fill="#1D1C21" transform="translate(413,144)"/>
<path d="M0 0 C2.49361571 1.20381448 4.68143083 2.45428722 7 4 C6.67 5.65 6.34 7.3 6 9 C6.721875 8.773125 7.44375 8.54625 8.1875 8.3125 C11.7809319 7.91322979 13.18230651 8.82635074 16 11 C16 11.66 16 12.32 16 13 C16.66 13 17.32 13 18 13 C18 13.66 18 14.32 18 15 C18.99 15.33 19.98 15.66 21 16 C18 17 18 17 15 16 C14.67 15.34 14.34 14.68 14 14 C13.01 13.67 12.02 13.34 11 13 C11 13.99 11 14.98 11 16 C10.34 16.33 9.68 16.66 9 17 C10.2375 17.680625 10.2375 17.680625 11.5 18.375 C12.325 18.91125 13.15 19.4475 14 20 C14 20.66 14 21.32 14 22 C10.66864109 21.40300869 8.78724333 20.27987719 6.25 18.0625 C5.63640625 17.53785156 5.0228125 17.01320312 4.390625 16.47265625 C3 15 3 15 3 13 C2.443125 12.773125 1.88625 12.54625 1.3125 12.3125 C-1.66159588 10.62449964 -3.72008865 8.53323483 -6 6 C-6 5.34 -6 4.68 -6 4 C-6.99 4 -7.98 4 -9 4 C-9 3.34 -9 2.68 -9 2 C-7.6078125 2.2784375 -7.6078125 2.2784375 -6.1875 2.5625 C-2.98656229 3.24123881 -2.98656229 3.24123881 0 2 C0 1.34 0 0.68 0 0 Z " fill="#141416" transform="translate(109,130)"/>
<path d="M0 0 C4.63689463 3.37228701 8.55982293 7.41970661 12 12 C12 12.66 12 13.32 12 14 C12.5775 14.20625 13.155 14.4125 13.75 14.625 C16 16 16 16 17.9375 19.0625 C19.70633249 22.21225644 19.70633249 22.21225644 22.75 22.875 C23.4925 22.91625 24.235 22.9575 25 23 C25.495 24.485 25.495 24.485 26 26 C25.01 26.99 24.02 27.98 23 29 C21.98292969 28.03900391 21.98292969 28.03900391 20.9453125 27.05859375 C12.33777718 19.05906993 3.4434019 12.47395703 -7 7 C-6 5 -6 5 -4.0625 4.0625 C-1.68028507 3.04654078 -1.68028507 3.04654078 0 0 Z " fill="#151517" transform="translate(539,206)"/>
<path d="M0 0 C1.17219543 0.78345715 2.33763668 1.57702836 3.5 2.375 C4.47453125 3.03628906 4.47453125 3.03628906 5.46875 3.7109375 C6.22671875 4.34902344 6.22671875 4.34902344 7 5 C7 5.66 7 6.32 7 7 C6.01 7 5.02 7 4 7 C6.64 8.32 9.28 9.64 12 11 C12 11.66 12 12.32 12 13 C13.98 13.66 15.96 14.32 18 15 C18 15.99 18 16.98 18 18 C19.32 18.66 20.64 19.32 22 20 C20.35 21.98 18.7 23.96 17 26 C14.5625 25.625 14.5625 25.625 12 25 C11.67 24.34 11.34 23.68 11 23 C11.66 22.01 12.32 21.02 13 20 C12.67 19.01 12.34 18.02 12 17 C10.02 16.67 8.04 16.34 6 16 C5.67 16.66 5.34 17.32 5 18 C4.01 17.67 3.02 17.34 2 17 C2 15.02 2 13.04 2 11 C2.763125 11.474375 3.52625 11.94875 4.3125 12.4375 C6.96410548 14.10106097 6.96410548 14.10106097 10 15 C10 14.34 10 13.68 10 13 C8.35 12.67 6.7 12.34 5 12 C5 11.34 5 10.68 5 10 C4.01 9.67 3.02 9.34 2 9 C1.3125 6.9375 1.3125 6.9375 1 5 C0.01 5 -0.98 5 -2 5 C-2 4.01 -2 3.02 -2 2 C-1.34 2 -0.68 2 0 2 C0 1.34 0 0.68 0 0 Z " fill="#151518" transform="translate(510,206)"/>
<path d="M0 0 C1.32 0.33 2.64 0.66 4 1 C3.67 1.66 3.34 2.32 3 3 C3.5775 3.28875 4.155 3.5775 4.75 3.875 C6.12563117 4.56281558 7.48566845 5.28470219 8.8125 6.0625 C12.70788621 7.73195123 16.79683125 8 21 8 C20.67 8.33 20.34 8.66 20 9 C19.70660105 11.9339895 19.49539663 14.14415963 20 17 C22.33336666 20.00333267 22.33336666 20.00333267 25 22 C16.57142857 23.42857143 16.57142857 23.42857143 12 21 C12.33 20.01 12.66 19.02 13 18 C14.32 18.33 15.64 18.66 17 19 C17 18.34 17 17.68 17 17 C15.35 16.34 13.7 15.68 12 15 C12 14.34 12 13.68 12 13 C11.38125 12.690625 10.7625 12.38125 10.125 12.0625 C8.75 11.375 7.375 10.6875 6 10 C5.67 9.01 5.34 8.02 5 7 C1.71303767 6.20046862 0.28976808 5.90341064 -3 7 C-1.125 2.25 -1.125 2.25 0 0 Z " fill="#111015" transform="translate(324,105)"/>
<path d="M0 0 C2.4375 0.375 2.4375 0.375 5 1 C5.33 1.66 5.66 2.32 6 3 C7.32 3 8.64 3 10 3 C10 3.66 10 4.32 10 5 C10.86625 4.835 11.7325 4.67 12.625 4.5 C16 4 16 4 19.1875 4.125 C22.03340701 4.27534596 22.03340701 4.27534596 23.875 2.5 C24.24625 2.005 24.6175 1.51 25 1 C25.33 1.99 25.66 2.98 26 4 C27.99665598 5.67067133 29.99651034 7.33752986 32 9 C32 9.66 32 10.32 32 11 C29.1875 11.625 29.1875 11.625 26 12 C25.01 11.34 24.02 10.68 23 10 C23 9.34 23 8.68 23 8 C21.35 8 19.7 8 18 8 C18.99 9.32 19.98 10.64 21 12 C20.67 12.66 20.34 13.32 20 14 C17.41147893 12.75991781 14.82953583 11.50852786 12.25 10.25 C11.52039063 9.90195313 10.79078125 9.55390625 10.0390625 9.1953125 C6.09243143 7.25787543 2.800211 5.50763273 0 2 C0 1.34 0 0.68 0 0 Z " fill="#1E1D22" transform="translate(345,182)"/>
<path d="M0 0 C2.49361571 1.20381448 4.68143083 2.45428722 7 4 C7 4.66 7 5.32 7 6 C7.66 6 8.32 6 9 6 C9 6.66 9 7.32 9 8 C10.1446875 8.433125 10.1446875 8.433125 11.3125 8.875 C14 10 14 10 17 12 C17.33 12.99 17.66 13.98 18 15 C20.3430809 16.12085312 20.3430809 16.12085312 23 17 C26.93981372 18.65217995 29.79025053 21.22794364 33 24 C32.01 24.495 32.01 24.495 31 25 C28.3203125 23.92578125 28.3203125 23.92578125 25.125 22.3125 C24.07570313 21.79300781 23.02640625 21.27351563 21.9453125 20.73828125 C19.13147536 19.07759487 17.27246885 17.30742991 15 15 C12.45809998 14.7499227 12.45809998 14.7499227 10 15 C6.25366514 13.75122171 4.58958203 11.93952555 2 9 C2 8.01 2 7.02 2 6 C2.66 5.67 3.32 5.34 4 5 C2.68 3.35 1.36 1.7 0 0 Z " fill="#101012" transform="translate(304,256)"/>
<path d="M0 0 C3.3787361 -0.28525915 6.63080122 -0.44016952 10 0 C12.48641318 2.71245074 13.33602383 5.41452866 14 9 C14.66 9 15.32 9 16 9 C16 9.66 16 10.32 16 11 C17.98 10.34 19.96 9.68 22 9 C21.814375 9.94875 21.62875 10.8975 21.4375 11.875 C20.71313368 14.89868793 20.71313368 14.89868793 22 17 C18.93606987 17.25532751 17.36766788 17.21861333 14.6875 15.625 C14.130625 15.08875 13.57375 14.5525 13 14 C13 13.34 13 12.68 13 12 C12.46375 11.773125 11.9275 11.54625 11.375 11.3125 C7.15009434 8.97768371 3.15106871 5.67624683 0 2 C0 1.34 0 0.68 0 0 Z " fill="#212125" transform="translate(355,160)"/>
<path d="M0 0 C1.32 0.33 2.64 0.66 4 1 C4 1.66 4 2.32 4 3 C5.96466413 4.06775224 7.96855359 5.06553465 10 6 C10.66 5.67 11.32 5.34 12 5 C12.33 5.66 12.66 6.32 13 7 C13.99 6.67 14.98 6.34 16 6 C15.67 6.99 15.34 7.98 15 9 C15.73854232 11.63813861 15.73854232 11.63813861 17 14 C17.66 14.33 18.32 14.66 19 15 C18.67 16.32 18.34 17.64 18 19 C17.34 19 16.68 19 16 19 C15.67 19.66 15.34 20.32 15 21 C13 17.25 13 17.25 13 15 C10.32357511 12.81509993 10.32357511 12.81509993 8 13 C7.79375 12.443125 7.5875 11.88625 7.375 11.3125 C6.00528548 9.00888922 4.9642565 8.09157983 2.875 6.5 C1.92625 5.675 0.9775 4.85 0 4 C0 2.68 0 1.36 0 0 Z " fill="#19181D" transform="translate(487,187)"/>
<path d="M0 0 C3 0 3 0 5.1875 1.75 C7 4 7 4 7 8 C9.31430531 9.73504373 9.31430531 9.73504373 11.1328125 10.78515625 C14.72913965 13.12502601 17.82288348 16.12930589 21 19 C20.67 19.66 20.34 20.32 20 21 C13.22712579 17.75946381 7.02231358 13.613174 2 8 C1.38125 7.319375 0.7625 6.63875 0.125 5.9375 C-1 4 -1 4 -0.6875 1.75 C-0.460625 1.1725 -0.23375 0.595 0 0 Z " fill="#202022" transform="translate(378,169)"/>
<path d="M0 0 C0.99 0 1.98 0 3 0 C3 0.66 3 1.32 3 2 C3.8353125 2.37125 3.8353125 2.37125 4.6875 2.75 C7.42410913 4.22924818 9.67650869 5.93467439 12 8 C12 8.66 12 9.32 12 10 C12.53625 10.226875 13.0725 10.45375 13.625 10.6875 C16.82460161 12.45570089 19.29037223 14.53670203 22 17 C22 17.66 22 18.32 22 19 C22.556875 19.2475 23.11375 19.495 23.6875 19.75 C26.39971127 21.21606015 28.63587365 23.02989471 31 25 C30.67 25.66 30.34 26.32 30 27 C27.96166576 25.7260411 25.96147874 24.38938077 24 23 C24 22.34 24 21.68 24 21 C23.071875 20.5359375 23.071875 20.5359375 22.125 20.0625 C20.75 19.375 19.375 18.6875 18 18 C18 17.34 18 16.68 18 16 C17.443125 15.7525 16.88625 15.505 16.3125 15.25 C14 14 14 14 11.4375 11.9375 C9.07973981 9.83615651 9.07973981 9.83615651 6 9 C6 8.01 6 7.02 6 6 C5.38125 5.7525 4.7625 5.505 4.125 5.25 C1.64931313 3.79371361 1.04874998 2.62187494 0 0 Z " fill="#131315" transform="translate(114,126)"/>
<path d="M0 0 C4.18423892 3.50897269 8.19588166 7.08060535 12 11 C11.67 11.99 11.34 12.98 11 14 C10.01 14 9.02 14 8 14 C7.67 12.35 7.34 10.7 7 9 C5.35 9 3.7 9 2 9 C2.99 10.485 2.99 10.485 4 12 C3.625 14.1875 3.625 14.1875 3 16 C2.34 16 1.68 16 1 16 C0.87625 15.175 0.7525 14.35 0.625 13.5 C0.14663262 10.8211427 -0.45037165 8.3561054 -1.1875 5.75 C-1.455625 4.5125 -1.72375 3.275 -2 2 C-1.34 1.34 -0.68 0.68 0 0 Z " fill="#141416" transform="translate(272,128)"/>
<path d="M0 0 C0.86625 0.2784375 0.86625 0.2784375 1.75 0.5625 C4.25602068 1.0497818 5.57369541 0.68239817 8 0 C9.32 0 10.64 0 12 0 C12 1.65 12 3.3 12 5 C11.34 5 10.68 5 10 5 C9.67 5.99 9.34 6.98 9 8 C6.69 8 4.38 8 2 8 C0 2.25 0 2.25 0 0 Z " fill="#1F1E24" transform="translate(219,136)"/>
<path d="M0 0 C2 3 2 3 2 5 C3.2065625 5.680625 3.2065625 5.680625 4.4375 6.375 C7 8 7 8 7.66015625 10.1015625 C7.77230469 10.72804687 7.88445312 11.35453125 8 12 C-3.02446483 10.18042813 -3.02446483 10.18042813 -7 7 C-7 6.34 -7 5.68 -7 5 C-6.21625 4.731875 -5.4325 4.46375 -4.625 4.1875 C-1.71885077 3.15185568 -1.71885077 3.15185568 0 0 Z " fill="#1B1A1F" transform="translate(224,165)"/>
<path d="M0 0 C0.66 0.66 1.32 1.32 2 2 C2.99 1.67 3.98 1.34 5 1 C5.66 1.33 6.32 1.66 7 2 C7 3.65 7 5.3 7 7 C5.91332031 6.67515625 5.91332031 6.67515625 4.8046875 6.34375 C-0.27034151 4.88214165 -4.67319101 3.72683031 -10 4 C-10.66 3.67 -11.32 3.34 -12 3 C-12 2.34 -12 1.68 -12 1 C-3.68674699 -1.35542169 -3.68674699 -1.35542169 0 0 Z M4 2 C5 4 5 4 5 4 Z " fill="#1F1E23" transform="translate(284,160)"/>
<path d="M0 0 C0.99 0.495 0.99 0.495 2 1 C2 1.66 2 2.32 2 3 C2.99 2.67 3.98 2.34 5 2 C7.48046875 3.65234375 7.48046875 3.65234375 10.1875 5.9375 C11.53908203 7.06478516 11.53908203 7.06478516 12.91796875 8.21484375 C13.60503906 8.80394531 14.29210937 9.39304688 15 10 C14.67 9.01 14.34 8.02 14 7 C14.66 7 15.32 7 16 7 C16.33 8.65 16.66 10.3 17 12 C14.875 12.75 14.875 12.75 12 13 C7.94431219 10.85287116 5.85797823 9.14472066 4 5 C3.01 4.67 2.02 4.34 1 4 C0.3125 1.9375 0.3125 1.9375 0 0 Z " fill="#0F0F11" transform="translate(231,210)"/>
<path d="M0 0 C2.96673556 -0.26267971 4.53475656 -0.30575658 7.0625 1.35546875 C7.701875 1.96003906 8.34125 2.56460938 9 3.1875 C9.680625 3.82558594 10.36125 4.46367187 11.0625 5.12109375 C11.701875 5.74113281 12.34125 6.36117187 13 7 C13.53625 7.48597656 14.0725 7.97195312 14.625 8.47265625 C16 9.75 16 9.75 18 12 C18 12.99 18 13.98 18 15 C15.5 13.625 15.5 13.625 13 12 C13 11.34 13 10.68 13 10 C12.34 9.814375 11.68 9.62875 11 9.4375 C6.710473 7.38210165 3.36916896 4.33572808 0 1 C0 0.67 0 0.34 0 0 Z " fill="#212125" transform="translate(250,169)"/>
<path d="M0 0 C0.99 0.33 1.98 0.66 3 1 C3 1.66 3 2.32 3 3 C4.32 2.67 5.64 2.34 7 2 C7.33 2.99 7.66 3.98 8 5 C7.67 5.66 7.34 6.32 7 7 C8.32 7.66 9.64 8.32 11 9 C10.01 9 9.02 9 8 9 C7.67 9.99 7.34 10.98 7 12 C4.03 11.505 4.03 11.505 1 11 C0.67 10.01 0.34 9.02 0 8 C1.32 7.34 2.64 6.68 4 6 C3.34 5.566875 2.68 5.13375 2 4.6875 C1.34 4.130625 0.68 3.57375 0 3 C0 2.01 0 1.02 0 0 Z " fill="#1C1B1F" transform="translate(240,123)"/>
<path d="M0 0 C4.875 3.75 4.875 3.75 6 6 C6.804375 6.433125 7.60875 6.86625 8.4375 7.3125 C11.41434947 9.27286429 12.00305041 10.64662411 13 14 C10 14 10 14 8.3125 12.625 C7 11 7 11 7 9 C6.071875 8.71125 5.14375 8.4225 4.1875 8.125 C1 7 1 7 -2 5 C-2 3.68 -2 2.36 -2 1 C-1.34 0.67 -0.68 0.34 0 0 Z " fill="#16151A" transform="translate(143,118)"/>
<path d="M0 0 C2.31 0.33 4.62 0.66 7 1 C7.33 2.65 7.66 4.3 8 6 C8.66 6 9.32 6 10 6 C10.625 7.875 10.625 7.875 11 10 C10.34 10.66 9.68 11.32 9 12 C7.48826565 10.76421715 5.9909084 9.51082994 4.5 8.25 C3.6646875 7.55390625 2.829375 6.8578125 1.96875 6.140625 C0 4 0 4 0 0 Z " fill="#111013" transform="translate(312,96)"/>
<path d="M0 0 C2.4375 0.8125 2.4375 0.8125 5 2 C5.33 2.99 5.66 3.98 6 5 C8.3430809 6.12085312 8.3430809 6.12085312 11 7 C14.93981372 8.65217995 17.79025053 11.22794364 21 14 C20.01 14.495 20.01 14.495 19 15 C16.3203125 13.92578125 16.3203125 13.92578125 13.125 12.3125 C12.07570313 11.79300781 11.02640625 11.27351563 9.9453125 10.73828125 C7.11651743 9.06876692 5.1113472 7.50403738 3 5 C3 4.34 3 3.68 3 3 C1.68 2.34 0.36 1.68 -1 1 C-0.67 0.67 -0.34 0.34 0 0 Z " fill="#181819" transform="translate(316,266)"/>
<path d="M0 0 C6.17491953 2.11711527 9.94734392 5.21602006 13 11 C11.35 11.33 9.7 11.66 8 12 C7.67 11.01 7.34 10.02 7 9 C4.03 8.505 4.03 8.505 1 8 C1.66 7.34 2.32 6.68 3 6 C2.34 5.34 1.68 4.68 1 4 C0.375 1.875 0.375 1.875 0 0 Z " fill="#19191C" transform="translate(480,151)"/>
<path d="M0 0 C0.99 0.33 1.98 0.66 3 1 C3 1.66 3 2.32 3 3 C4.98 2.67 6.96 2.34 9 2 C9 3.65 9 5.3 9 7 C8.67 6.34 8.34 5.68 8 5 C6.68 6.32 5.36 7.64 4 9 C4.66 9.33 5.32 9.66 6 10 C4.125 9.75 4.125 9.75 2 9 C0.75 6.9375 0.75 6.9375 0 5 C-0.66 5 -1.32 5 -2 5 C-1.34 3.35 -0.68 1.7 0 0 Z " fill="#111113" transform="translate(279,126)"/>
<path d="M0 0 C7.26419717 2.42139906 12.5258443 6.89887859 17 13 C17 13.66 17 14.32 17 15 C13.25 16.125 13.25 16.125 11 15 C11 14.34 11 13.68 11 13 C11.66 13 12.32 13 13 13 C9.50794062 9.40523299 5.95966325 6.07973809 2 3 C1.34 3 0.68 3 0 3 C0 2.01 0 1.02 0 0 Z " fill="#181819" transform="translate(134,152)"/>
<path d="M0 0 C1.010625 0.763125 2.02125 1.52625 3.0625 2.3125 C5.97189789 4.50638593 8.90816677 6.65667012 11.87109375 8.77734375 C12.54970459 9.26614014 13.22831543 9.75493652 13.92749023 10.25854492 C15.30473194 11.24965926 16.68575012 12.23554763 18.07055664 13.21606445 C19.74989866 14.42876911 21.38001461 15.70907414 23 17 C23 17.66 23 18.32 23 19 C18.39463013 17.70473972 15.57649212 15.01775182 12.12890625 11.87109375 C9.44993634 9.51654955 6.59569592 7.48347906 3.6640625 5.45703125 C1.78303946 3.8100322 0.9687135 2.28479396 0 0 Z " fill="#131313" transform="translate(279,252)"/>
<path d="M0 0 C0.86625 0.680625 0.86625 0.680625 1.75 1.375 C3.7800333 2.84113516 5.73539843 3.94857784 8 5 C6.02 6.32 4.04 7.64 2 9 C-0.46800047 7.84826645 -2.04783565 6.95216435 -4 5 C-2 3 -2 3 0 2 C0 1.34 0 0.68 0 0 Z " fill="#1C1B1F" transform="translate(474,196)"/>
<path d="M0 0 C1.32 0.66 2.64 1.32 4 2 C4 2.99 4 3.98 4 5 C4.94978897 7.15028304 4.94978897 7.15028304 6 9 C1.41765954 9 0.94491878 8.4819242 -2.25 5.5 C-2.95640625 4.8503125 -3.6628125 4.200625 -4.390625 3.53125 C-4.92171875 3.0259375 -5.4528125 2.520625 -6 2 C-5.01 2 -4.02 2 -3 2 C-2.34 2.66 -1.68 3.32 -1 4 C-0.67 2.68 -0.34 1.36 0 0 Z " fill="#151419" transform="translate(241,157)"/>
<path d="M0 0 C3.3 1.65 6.6 3.3 10 5 C10 5.66 10 6.32 10 7 C2.61538462 7.49230769 2.61538462 7.49230769 -0.5 5 C-0.995 4.34 -1.49 3.68 -2 3 C-1.34 2.67 -0.68 2.34 0 2 C0 1.34 0 0.68 0 0 Z " fill="#1B1B1E" transform="translate(239,177)"/>
<path d="M0 0 C1.6396875 0.2475 1.6396875 0.2475 3.3125 0.5 C6.87525873 1.06718184 6.87525873 1.06718184 10 1 C9.67 1.33 9.34 1.66 9 2 C8.63239269 4.32817964 8.29758419 6.6618385 8 9 C7.34 9 6.68 9 6 9 C6 8.34 6 7.68 6 7 C5.401875 6.731875 4.80375 6.46375 4.1875 6.1875 C2.02775192 5.01506533 0.64209744 3.80630718 -1 2 C-0.67 1.34 -0.34 0.68 0 0 Z " fill="#1C1B21" transform="translate(335,112)"/>
<path d="M0 0 C2.84048268 1.09995912 5.49568941 2.25280657 8 4 C9 7.25 9 7.25 9 10 C2.53162939 7.68115016 2.53162939 7.68115016 0 4.4375 C-0.33 3.633125 -0.66 2.82875 -1 2 C-0.67 1.34 -0.34 0.68 0 0 Z " fill="#1F1F21" transform="translate(239,196)"/>
<path d="M0 0 C0.99 0.33 1.98 0.66 3 1 C3 1.66 3 2.32 3 3 C3.350625 3.66 3.70125 4.32 4.0625 5 C4.371875 5.66 4.68125 6.32 5 7 C4.67 7.66 4.34 8.32 4 9 C4.66 9 5.32 9 6 9 C5.67 9.66 5.34 10.32 5 11 C3.70094902 10.2628641 2.41098878 9.50969444 1.125 8.75 C0.40570313 8.33234375 -0.31359375 7.9146875 -1.0546875 7.484375 C-3.20874162 5.84071924 -3.99140585 4.48432665 -5 2 C-2.525 2.99 -2.525 2.99 0 4 C-0.33 3.01 -0.66 2.02 -1 1 C-0.67 0.67 -0.34 0.34 0 0 Z " fill="#151418" transform="translate(268,179)"/>
<path d="M0 0 C0.99 0.33 1.98 0.66 3 1 C3 1.66 3 2.32 3 3 C3.99 2.67 4.98 2.34 6 2 C8.875 6.75 8.875 6.75 10 9 C9.34 9.66 8.68 10.32 8 11 C8 10.34 8 9.68 8 9 C7.2575 8.7525 6.515 8.505 5.75 8.25 C2.79875938 6.90852699 1.15185026 5.39094474 -1 3 C-0.67 2.01 -0.34 1.02 0 0 Z " fill="#151419" transform="translate(321,160)"/>
<path d="M0 0 C0.48210937 0.42152344 0.96421875 0.84304687 1.4609375 1.27734375 C2.09257813 1.82519531 2.72421875 2.37304688 3.375 2.9375 C4.00148438 3.48277344 4.62796875 4.02804688 5.2734375 4.58984375 C6.95632334 6.06958624 6.95632334 6.06958624 9 7 C8.34 8.32 7.68 9.64 7 11 C5.68 10.34 4.36 9.68 3 9 C3 8.34 3 7.68 3 7 C2.34 7 1.68 7 1 7 C0.67 4.69 0.34 2.38 0 0 Z " fill="#101012" transform="translate(80,118)"/>
<path d="M0 0 C4.12751449 0.60698743 7.3321148 2.03810791 11 4 C10.75 5.875 10.75 5.875 10 8 C7.9375 9.25 7.9375 9.25 6 10 C5.67 7.69 5.34 5.38 5 3 C3.35 2.67 1.7 2.34 0 2 C0 1.34 0 0.68 0 0 Z " fill="#0D0C11" transform="translate(139,123)"/>
<path d="M0 0 C3.58273331 1.65356922 6.80973467 3.67980703 10 6 C10 6.66 10 7.32 10 8 C10.78375 8.2475 11.5675 8.495 12.375 8.75 C15.32317108 10.15389099 15.9024777 11.00675737 17 14 C13.24360101 11.79035353 9.53659861 9.54964086 6 7 C6 6.34 6 5.68 6 5 C5.195625 4.731875 4.39125 4.46375 3.5625 4.1875 C2.716875 3.795625 1.87125 3.40375 1 3 C0.67 2.01 0.34 1.02 0 0 Z " fill="#111111" transform="translate(304,272)"/>
<path d="M0 0 C7.00925975 1.53861799 11.10788258 6.13130585 14.9375 11.9375 C15.288125 12.618125 15.63875 13.29875 16 14 C13.13302508 12.71480435 11.02392288 11.42870746 9 9 C9 8.34 9 7.68 9 7 C8.443125 6.773125 7.88625 6.54625 7.3125 6.3125 C4.36753316 4.64103234 2.31843456 2.44723648 0 0 Z " fill="#171719" transform="translate(522,209)"/>
<path d="M0 0 C2.76276177 0.52268466 5.3260876 1.10869587 8 2 C8 2.66 8 3.32 8 4 C9.32 4.66 10.64 5.32 12 6 C12 6.66 12 7.32 12 8 C8.76761586 7.92303847 6.66772205 7.62561345 4.265625 5.375 C2.78148327 3.62229929 1.36155666 1.84920638 0 0 Z " fill="#1F1E21" transform="translate(423,199)"/>
<path d="M0 0 C1.09658936 3.28976808 0.79953138 4.71303767 0 8 C-0.66 8 -1.32 8 -2 8 C-2.33 8.66 -2.66 9.32 -3 10 C-4.5625 8.75 -4.5625 8.75 -6 7 C-6 5 -6 5 -5 3 C-2.4375 1.25 -2.4375 1.25 0 0 Z " fill="#1E1D21" transform="translate(455,176)"/>
<path d="M0 0 C2.3125 -0.3125 2.3125 -0.3125 5 0 C6.81883009 2.3832946 8 3.95818337 8 7 C4.17902761 6.46930939 1.93828597 5.50298434 -1 3 C-0.67 2.01 -0.34 1.02 0 0 Z " fill="#0F0E13" transform="translate(360,160)"/>
<path d="M0 0 C2.97769846 0.1384976 5.21826492 0.31118434 7.51171875 2.33203125 C11 6.44000716 11 6.44000716 11 9 C10.01 9 9.02 9 8 9 C8 7.68 8 6.36 8 5 C5.36 5 2.72 5 0 5 C0.66 4.67 1.32 4.34 2 4 C2 3.34 2 2.68 2 2 C1.34 2 0.68 2 0 2 C0 1.34 0 0.68 0 0 Z " fill="#0D0D0F" transform="translate(101,147)"/>
<path d="M0 0 C0.99 0.33 1.98 0.66 3 1 C3 1.99 3 2.98 3 4 C3.66 4 4.32 4 5 4 C6.5 5.375 6.5 5.375 8 7 C8.66 7.66 9.32 8.32 10 9 C4.375 10.125 4.375 10.125 1 9 C1 8.34 1 7.68 1 7 C1.66 6.67 2.32 6.34 3 6 C2.67 5.01 2.34 4.02 2 3 C1.01 3 0.02 3 -1 3 C-0.67 2.01 -0.34 1.02 0 0 Z " fill="#0D0D0F" transform="translate(405,168)"/>
<path d="M0 0 C4.455 1.98 4.455 1.98 9 4 C8.67 5.32 8.34 6.64 8 8 C4 8 4 8 1 7 C1.33 6.01 1.66 5.02 2 4 C2 4.66 2 5.32 2 6 C2.66 6 3.32 6 4 6 C3.34 5.38125 2.68 4.7625 2 4.125 C0 2 0 2 0 0 Z " fill="#0E0D12" transform="translate(431,201)"/>
<path d="M0 0 C4.75 1.875 4.75 1.875 7 3 C7 3.66 7 4.32 7 5 C7.66 5.33 8.32 5.66 9 6 C6.04335481 7.4783226 3.25770263 7.06032783 0 7 C0 6.34 0 5.68 0 5 C0.66 5 1.32 5 2 5 C1.34 4.34 0.68 3.68 0 3 C0 2.01 0 1.02 0 0 Z " fill="#1E1E20" transform="translate(224,184)"/>
<path d="M0 0 C2.875 -0.125 2.875 -0.125 6 0 C6.66 0.66 7.32 1.32 8 2 C7.75 4.0625 7.75 4.0625 7 6 C6.01 6.495 6.01 6.495 5 7 C5 6.34 5 5.68 5 5 C3.35 5 1.7 5 0 5 C0 3.35 0 1.7 0 0 Z " fill="#201F25" transform="translate(336,145)"/>
<path d="M0 0 C2.31 0.33 4.62 0.66 7 1 C6.67 2.32 6.34 3.64 6 5 C6.66 5 7.32 5 8 5 C8 5.66 8 6.32 8 7 C6.35 7.33 4.7 7.66 3 8 C2.690625 7.05125 2.38125 6.1025 2.0625 5.125 C1.12605258 2.13919592 1.12605258 2.13919592 0 0 Z " fill="#101011" transform="translate(153,152)"/>
<path d="M0 0 C3.53372712 1.96318174 6.24479785 4.04070881 9 7 C6.69 7.33 4.38 7.66 2 8 C0 2.25 0 2.25 0 0 Z " fill="#17161C" transform="translate(219,136)"/>
<path d="M0 0 C3.26460973 1.80412643 4.88929795 2.83394693 7 6 C5.68 7.32 4.36 8.64 3 10 C1.68 9.34 0.36 8.68 -1 8 C-0.34 8 0.32 8 1 8 C1 7.34 1 6.68 1 6 C2.32 6.33 3.64 6.66 5 7 C5 6.34 5 5.68 5 5 C3.02 4.34 1.04 3.68 -1 3 C-0.67 2.01 -0.34 1.02 0 0 Z " fill="#0D0D0F" transform="translate(103,124)"/>
<path d="M0 0 C1.32 0.33 2.64 0.66 4 1 C4.061875 1.556875 4.12375 2.11375 4.1875 2.6875 C5.33373872 5.94987173 7.49390197 7.68667874 10 10 C5.65128026 9.49822465 3.04396078 6.97477985 0 4 C0 2.68 0 1.36 0 0 Z " fill="#151419" transform="translate(487,187)"/>
<path d="M0 0 C2.475 0.495 2.475 0.495 5 1 C5.33 1.99 5.66 2.98 6 4 C9.00007271 5.70855022 9.00007271 5.70855022 12 7 C12 7.66 12 8.32 12 9 C6.80474854 7.6393389 3.82444243 5.64232612 0 2 C0 1.34 0 0.68 0 0 Z " fill="#202023" transform="translate(345,182)"/>
<path d="M0 0 C-0.2475 0.556875 -0.495 1.11375 -0.75 1.6875 C-1.28353676 4.24050936 -1.28353676 4.24050936 0.9375 6.75 C1.618125 7.4925 2.29875 8.235 3 9 C0 9 0 9 -3 8 C-3 6.35 -3 4.7 -3 3 C-3.66 2.67 -4.32 2.34 -5 2 C-2 0 -2 0 0 0 Z " fill="#1C1B20" transform="translate(483,181)"/>
<path d="M0 0 C1.9375 0.3125 1.9375 0.3125 4 1 C4.33 1.99 4.66 2.98 5 4 C7.97 4.495 7.97 4.495 11 5 C11 5.66 11 6.32 11 7 C8.69 7 6.38 7 4 7 C4 6.34 4 5.68 4 5 C3.34 5 2.68 5 2 5 C1.34 3.35 0.68 1.7 0 0 Z " fill="#010103" transform="translate(587,284)"/>
<path d="M0 0 C1.32 0.66 2.64 1.32 4 2 C3.67 2.33 3.34 2.66 3 3 C3.66 3.66 4.32 4.32 5 5 C4.01 6.485 4.01 6.485 3 8 C0.375 8.1875 0.375 8.1875 -2 8 C-1.67 7.05125 -1.34 6.1025 -1 5.125 C0.10159191 2.22937548 0.10159191 2.22937548 0 0 Z " fill="#19181E" transform="translate(370,120)"/>
<path d="M0 0 C0.598125 0.350625 1.19625 0.70125 1.8125 1.0625 C1.4825 2.3825 1.1525 3.7025 0.8125 5.0625 C-0.5075 4.7325 -1.8275 4.4025 -3.1875 4.0625 C-3.1875 3.4025 -3.1875 2.7425 -3.1875 2.0625 C-3.8475 2.0625 -4.5075 2.0625 -5.1875 2.0625 C-5.1875 1.4025 -5.1875 0.7425 -5.1875 0.0625 C-2.1875 -0.9375 -2.1875 -0.9375 0 0 Z " fill="#141318" transform="translate(558.1875,248.9375)"/>
<path d="M0 0 C3.42353587 1.21480305 5.01180815 3.01771223 7 6 C5.3125 6.75 5.3125 6.75 3 7 C0.25 5.1875 0.25 5.1875 -2 3 C-2 2.34 -2 1.68 -2 1 C-1.34 0.67 -0.68 0.34 0 0 Z " fill="#0D0C11" transform="translate(131,160)"/>
<path d="M0 0 C1.9375 0.125 1.9375 0.125 4 1 C5.25 3.5625 5.25 3.5625 6 6 C3 6 3 6 0 5 C-0.75 3 -0.75 3 -1 1 C-0.67 0.67 -0.34 0.34 0 0 Z " fill="#1F1E23" transform="translate(272,151)"/>
<path d="M0 0 C5.53846154 -0.36923077 5.53846154 -0.36923077 7.875 1.5 C8.24625 1.995 8.6175 2.49 9 3 C7.3125 4.125 7.3125 4.125 5 5 C2.25 4.125 2.25 4.125 0 3 C0 2.01 0 1.02 0 0 Z " fill="#1E1D23" transform="translate(336,123)"/>
<path d="M0 0 C2.475 0.495 2.475 0.495 5 1 C5.33 1.99 5.66 2.98 6 4 C4.35 4.33 2.7 4.66 1 5 C0.67 3.35 0.34 1.7 0 0 Z " fill="#121214" transform="translate(567,235)"/>
<path d="M0 0 C2.5 1.3125 2.5 1.3125 5 3 C5 3.99 5 4.98 5 6 C5.66 6.33 6.32 6.66 7 7 C6.01 7.33 5.02 7.66 4 8 C3.34 6.68 2.68 5.36 2 4 C1.01 4 0.02 4 -1 4 C-0.67 2.68 -0.34 1.36 0 0 Z " fill="#101012" transform="translate(397,161)"/>
<path d="M0 0 C0 0.99 0 1.98 0 3 C0.3062434 4.33981486 0.63451555 5.67511887 1 7 C-0.8125 7.6875 -0.8125 7.6875 -3 8 C-4.75 6.5625 -4.75 6.5625 -6 5 C-4.68 5.33 -3.36 5.66 -2 6 C-2 5.34 -2 4.68 -2 4 C-2.66 4 -3.32 4 -4 4 C-4 3.34 -4 2.68 -4 2 C-2.68 1.34 -1.36 0.68 0 0 Z " fill="#141318" transform="translate(204,136)"/>
<path d="M0 0 C1.98 0 3.96 0 6 0 C5.01 0.495 5.01 0.495 4 1 C3.34227572 4.02934491 3.34227572 4.02934491 3 7 C2.67 6.34 2.34 5.68 2 5 C1.34 5 0.68 5 0 5 C0 3.35 0 1.7 0 0 Z " fill="#1A191E" transform="translate(314,153)"/>
<path d="M0 0 C0 0.66 0 1.32 0 2 C0.66 2 1.32 2 2 2 C1.34 3.32 0.68 4.64 0 6 C-1.32 5.67 -2.64 5.34 -4 5 C-4 3.68 -4 2.36 -4 1 C-2 0 -2 0 0 0 Z " fill="#16151A" transform="translate(261,137)"/>
<path d="M0 0 C0.66 0 1.32 0 2 0 C2.33 1.65 2.66 3.3 3 5 C2.01 5.33 1.02 5.66 0 6 C0 5.34 0 4.68 0 4 C-0.99 3.67 -1.98 3.34 -3 3 C-2.67 2.34 -2.34 1.68 -2 1 C-1.34 1.33 -0.68 1.66 0 2 C0 1.34 0 0.68 0 0 Z " fill="#151417" transform="translate(549,255)"/>
<path d="M0 0 C1.32 0.33 2.64 0.66 4 1 C4 2.65 4 4.3 4 6 C2.02 5.34 0.04 4.68 -2 4 C-1.34 2.68 -0.68 1.36 0 0 Z M1 1 C2 3 2 3 2 3 Z " fill="#17171A" transform="translate(287,161)"/>
<path d="M0 0 C1.98 0.495 1.98 0.495 4 1 C4 1.66 4 2.32 4 3 C4.99 3.33 5.98 3.66 7 4 C6.67 4.66 6.34 5.32 6 6 C3.97954558 5.39816251 1.97888961 4.72693904 0 4 C-0.33 3.34 -0.66 2.68 -1 2 C-0.67 1.34 -0.34 0.68 0 0 Z " fill="#121117" transform="translate(337,149)"/>
<path d="M0 0 C0.33 0.66 0.66 1.32 1 2 C1.99 2 2.98 2 4 2 C3.67 3.98 3.34 5.96 3 8 C2.01 7.67 1.02 7.34 0 7 C0.33 6.01 0.66 5.02 1 4 C0.34 4 -0.32 4 -1 4 C-0.67 2.68 -0.34 1.36 0 0 Z " fill="#111014" transform="translate(274,121)"/>
<path d="M0 0 C2.475 0.99 2.475 0.99 5 2 C4.67 2.99 4.34 3.98 4 5 C3.01 5.33 2.02 5.66 1 6 C0.34 5.67 -0.32 5.34 -1 5 C-1 4.34 -1 3.68 -1 3 C-0.34 3 0.32 3 1 3 C0.67 2.01 0.34 1.02 0 0 Z M-1 6 C1 7 1 7 1 7 Z " fill="#19181D" transform="translate(252,113)"/>
<path d="M0 0 C1.98 0.495 1.98 0.495 4 1 C4 2.32 4 3.64 4 5 C2.35 4.67 0.7 4.34 -1 4 C-0.67 2.68 -0.34 1.36 0 0 Z " fill="#0F0E13" transform="translate(120,93)"/>
<path d="M0 0 C2.97 0.495 2.97 0.495 6 1 C6 2.98 6 4.96 6 7 C5.67 6.34 5.34 5.68 5 5 C4.01 4.67 3.02 4.34 2 4 C0.8125 1.9375 0.8125 1.9375 0 0 Z " fill="#1C1B20" transform="translate(208,161)"/>
<path d="M0 0 C3.16115776 1.36983503 3.9927092 1.9890638 6 5 C4.02 5.99 4.02 5.99 2 7 C1.814375 6.071875 1.814375 6.071875 1.625 5.125 C1.12802644 2.80879168 1.12802644 2.80879168 -1 1 C-0.67 0.67 -0.34 0.34 0 0 Z " fill="#212025" transform="translate(244,160)"/>
<path d="M0 0 C2.475 0.495 2.475 0.495 5 1 C5.12375 1.639375 5.2475 2.27875 5.375 2.9375 C5.684375 3.9584375 5.684375 3.9584375 6 5 C6.66 5.33 7.32 5.66 8 6 C8 6.66 8 7.32 8 8 C4.63820226 6.55922954 2.40843732 4.75249979 0 2 C0 1.34 0 0.68 0 0 Z " fill="#111113" transform="translate(139,142)"/>
<path d="M0 0 C2.1875 -0.3125 2.1875 -0.3125 5 0 C7.8125 2.5 7.8125 2.5 10 5 C9.01 5.66 8.02 6.32 7 7 C6.5875 6.175 6.175 5.35 5.75 4.5 C5.1725 3.675 4.595 2.85 4 2 C2.68 2 1.36 2 0 2 C0 1.34 0 0.68 0 0 Z " fill="#18181A" transform="translate(369,138)"/>
<path d="M0 0 C3.33727786 1.17255709 5.77437487 2.18868404 8 5 C8 5.66 8 6.32 8 7 C4.2047869 5.50902342 2.38957269 3.24299151 0 0 Z " fill="#111112" transform="translate(474,247)"/>
<path d="M0 0 C4.43458973 1.3937282 6.87378374 3.60582235 10 7 C5.56541027 5.6062718 3.12621626 3.39417765 0 0 Z " fill="#151518" transform="translate(507,231)"/>
<path d="M0 0 C0 2.31 0 4.62 0 7 C-0.66 7 -1.32 7 -2 7 C-4 4 -4 4 -4 1 C-2 0 -2 0 0 0 Z " fill="#1E1D22" transform="translate(440,160)"/>
<path d="M0 0 C1.17219543 0.78345715 2.33763668 1.57702836 3.5 2.375 C4.47453125 3.03628906 4.47453125 3.03628906 5.46875 3.7109375 C6.22671875 4.34902344 6.22671875 4.34902344 7 5 C7 5.66 7 6.32 7 7 C6.1646875 6.566875 6.1646875 6.566875 5.3125 6.125 C2.91505355 4.9586747 0.48403061 3.9660119 -2 3 C-1.34 2.67 -0.68 2.34 0 2 C0 1.34 0 0.68 0 0 Z " fill="#17171A" transform="translate(510,206)"/>
<path d="M0 0 C4.6302521 1.46218487 4.6302521 1.46218487 6.375 4 C7 6 7 6 6 8 C4.02 5.36 2.04 2.72 0 0 Z " fill="#101012" transform="translate(340,187)"/>
<path d="M0 0 C1.65 0 3.3 0 5 0 C5.66 1.65 6.32 3.3 7 5 C5.68 4.67 4.36 4.34 3 4 C3 3.34 3 2.68 3 2 C2.01 1.67 1.02 1.34 0 1 C0 0.67 0 0.34 0 0 Z " fill="#212025" transform="translate(360,160)"/>
<path d="M0 0 C1.98 0.495 1.98 0.495 4 1 C3.67 2.65 3.34 4.3 3 6 C1.68 5.67 0.36 5.34 -1 5 C-0.67 3.35 -0.34 1.7 0 0 Z " fill="#131315" transform="translate(291,156)"/>
<path d="M0 0 C2.99324263 1.0975223 3.84610901 1.67682892 5.25 4.625 C5.4975 5.40875 5.745 6.1925 6 7 C5.01 7 4.02 7 3 7 C3 5.68 3 4.36 3 3 C2.01 2.67 1.02 2.34 0 2 C0 1.34 0 0.68 0 0 Z " fill="#141416" transform="translate(106,149)"/>
<path d="M0 0 C2.99324263 1.0975223 3.84610901 1.67682892 5.25 4.625 C5.4975 5.40875 5.745 6.1925 6 7 C4.68 7.33 3.36 7.66 2 8 C2 6.35 2 4.7 2 3 C1.34 2.67 0.68 2.34 0 2 C0 1.34 0 0.68 0 0 Z " fill="#131217" transform="translate(206,143)"/>
<path d="M0 0 C0.99 0.33 1.98 0.66 3 1 C3.33 2.65 3.66 4.3 4 6 C3.01 6.495 3.01 6.495 2 7 C0.4375 4.625 0.4375 4.625 -1 2 C-0.67 1.34 -0.34 0.68 0 0 Z " fill="#100F14" transform="translate(288,76)"/>
</svg>
